<svg xmlns="http://www.w3.org/2000/svg" viewBox="0 0 132.52 978.67"><defs><style>.cls-1{fill:#211e1f;}.cls-2{fill:#fcfcfc;}.cls-3{fill:#a9a9ac;}.cls-4{fill:#d0d1d3;}.cls-5{fill:#585657;}.cls-6{fill:#d1d2d3;}.cls-7{fill:#575556;}.cls-8{fill:#f2f2f3;}.cls-9{fill:#6d6d6d;}.cls-10{fill:#565555;}.cls-11{fill:#e2b865;}.cls-12{fill:#cdcecd;}.cls-13{fill:#ccccce;}.cls-14{fill:#cccdcc;}.cls-15{fill:#cdcecf;}.cls-16{fill:#acadae;}.cls-17{fill:#c9cbcc;}.cls-18{fill:#a9abac;}.cls-19{fill:#cdcdcf;}.cls-20{fill:#cccecd;}.cls-21{fill:#cccdce;}.cls-22{fill:#cbcdcd;}.cls-23{fill:#d19e42;}.cls-24{fill:#f4daa5;}.cls-25{fill:#d0d1d2;}.cls-26{fill:#d0d0d2;}.cls-27{fill:#a5a5a7;}.cls-28{fill:#8b8a8a;}.cls-29{fill:#eee;}.cls-30{fill:#6c6c6d;}.cls-31{fill:#3a393b;}.cls-32{fill:#e0e0e1;}.cls-33{fill:#a1a1a3;}</style></defs><g id="Layer_2" data-name="Layer 2"><g id="Layer_1-2" data-name="Layer 1"><path class="cls-1" d="M131,948.85c1.44,7.54,2.25,15,.57,22.71-.61,2.79-1.78,4.3-4.5,4.78-3.1.55-6.19,1.11-9.28,1.73-5,1-8.11,1.41-12.7-4.05-5.46-6.49-5.75-12.81-6.72-19.8,1.15-.3,2.53.67,3.55-.64-1.46-1-2.28.93-3.54.7l-1.53-3.06a13.82,13.82,0,0,1-2-10.45c-1.54-12.18-4-24.2-6.5-36.21Q78.22,848.87,68.08,793.19c-5-27.44-10.22-54.84-15-82.31-.9-5.18-2.13-7.42-7.9-5.75-5.31,1.55-11.11,1.45-16.42,3-5.58,1.64-5.63-1.42-6.66-5.32-1.39-5.27,1.74-5.18,5.11-5.68,5.88-.88,11.71-2.17,17.62-2.83,3.73-.42,4.82-1.48,4.15-5.5q-27.25-161-39.73-323.91C.87,255.54-2.8,146.06,2.42,36.4,3.19,20.12,15.72,4.31,31.5,0c-.27,6.55-.56,12.91-.8,19.28-4.36,117.15.76,234,11,350.72Q55.42,527.4,82.15,683.14c.63,3.69,1.51,4.93,5.48,4.08,7.81-1.67,15.81-2.47,23.6-4.21,4.27-1,5.52.23,5.84,4.31.26,3.32,1.78,6.17-3.74,6.68-7.94.73-15.75,2.8-23.68,3.71-4.37.5-4.8,2-4.06,6q17.55,94.34,34.8,188.72C123.86,911.25,127.47,930,131,948.85Z"/><path class="cls-2" d="M19.5,41.48C17.75,57.22,18.17,73,18.08,88.8c-.84,140.92,9,281.19,26,421,.23,1.84.36,3.69.53,5.54-3.48,1-2.81-2-3.13-3.51-1.25-6-1.54-12.15-2.56-18.88-4.33,5.49-7.63,10.25-6.77,17.62,3.74,31.93,8.19,63.76,12.62,95.6,2.58,18.58,5.43,37.12,8.07,55.69.16,1.1.25,2.22.39,3.32.4,3.28,1.73,4.33,4.65,2.13a7.17,7.17,0,0,1,3-1.4,1.09,1.09,0,0,1,1.14.83c-2.57,3.72-6.08,6.3-10.51,8.85-3.08-19.92-6.21-39.34-9.07-58.8C26.47,508,15.11,398.71,9.25,288.87,4.91,207.46,3.64,126,7.23,44.54c.06-1.28.27-2.56.41-3.85,3.61-2.23,7.38-.58,11.09-.46A1.42,1.42,0,0,1,19.5,41.48Z"/><path class="cls-3" d="M25.91,20.91c-2,38.84-2.19,77.71-1.62,116.59C26.83,313.41,44.75,487.89,72.9,661.43c.32,1.94,1.2,3.88.47,6.2-3.86-1.35-5.08-4.09-5.69-7.85Q40.17,490,27.71,318.55C21.79,235.2,18.8,151.76,20.22,68.19c.16-8.92.51-17.84.77-26.76-1.78-6.82.5-13.22,2.09-19.67C23.37,20.6,24.38,19.26,25.91,20.91Z"/><path class="cls-4" d="M61.46,666.21l-7.79,5.56c-2.89-7.87-3-15.92-4.26-23.7-3.4-21.35-6.25-42.79-9.1-64.23-3.44-25.84-6.61-51.71-10-77.56-.35-2.7.87-4.73,2.1-6.72,2-3.26,4.39-6.3,7.37-10.5,1.11,8.54,2.08,16,3.07,23.55.15,1.16-.38,2.82,1.75,2.74l6.81,52.1c-.54,8.94,1.82,17.56,3,26.3,2.91,22,6.25,44,9.64,66C64.45,662.52,64.71,665,61.46,666.21Z"/><path class="cls-5" d="M115.09,887.21c-5.42-16.59-7.17-34-11.45-50.86-1-3.73-1.77-7.5-2.71-11.51-3.76,1.23-4.77,5.87-8.72,6.33.64-4.34,4.16-6.33,7.12-8.77,1.94-5.53-.65-10.83-.88-16.25-.29-7.17-1.36-14.31-2.1-21.46l1.61-.24,18.6,102.82C116,888.08,115.53,888.41,115.09,887.21Z"/><path class="cls-6" d="M19.08,40.48c-3.79,1.45-7.63.27-11.44.21a25.14,25.14,0,0,1,3.29-15.77c3.58-4.16,5.91-9.33,10.35-12.81.83-.65,1.46-1.87,2.76-1.25,1.73.82.64,2.12.5,3.33C24.07,18,21.62,21.41,22,25.43,21.22,30.48,22.07,35.86,19.08,40.48Z"/><path class="cls-7" d="M80.19,711.93c.49-2.94-1.39-5.27-2-7.92-.31-1.32-2.68-2.29-1.09-3.76.76-.71,2.47-.58,3.73-.54,2.12.06,2,2,2.2,3.31,1.51,7.82,2.9,15.66,4.34,23.49q3.69,19.92,7.38,39.84c.18,1,.25,2.07.38,3.1l-1.57.22c-2.41-10.33-5-20.62-7.2-31-1.5-7-2.4-14.23-3.79-21.3-.38-1.92-.61-4.1-2.36-5.52Z"/><path class="cls-8" d="M61.46,666.21a5.29,5.29,0,0,0,1.56-5c-3.22-21.93-6.29-43.89-9.4-65.84-1.19-8.4-2.43-16.8-3.55-25.21-.13-1-1.07-2.8,1.34-2.73,4.76,31.38,9.4,62.78,14.44,94.11.65,4-1.84,4-3.82,5.19C61.85,666.56,61.65,666.38,61.46,666.21Z"/><path class="cls-9" d="M69.28,697.88l-38.86,6.63c-1.61.27-3.48,1-3.89-1.62-.47-2.94,2-2.77,3.61-3,12.78-2.13,25.57-4.15,38.36-6.2C69.62,694.9,70.24,696.25,69.28,697.88Z"/><path class="cls-10" d="M115.09,887.21l1.47.06,11.85,63.58c-4.26-4.77-4.27-11.05-7.1-16.21v.06c-.2-9.76-2.9-19.2-3.77-28.88C117,899.59,115.92,893.41,115.09,887.21Z"/><path class="cls-11" d="M56,692.16c-.7.13-1.75.62-2.06.33-2.67-2.55-2.28-11.47.77-13.46,4.6-3,8-7.91,13.87-8.85,1.25,6.42,3.92,12.67,2.27,19.43l-7.91,1.5c-1.44-2.89-.31-6-.92-9.05-.67-3.38-1.89-3.34-4.36-1.7s-2.52,3.68-2.36,6.21C55.37,688.47,57.5,690.1,56,692.16Z"/><path class="cls-12" d="M97.22,906.08c8.86-10.65,6-8.88,17-3.41C108.55,911.84,106.74,912.2,97.22,906.08Z"/><path class="cls-13" d="M99.33,822.4c-.88,4.13-4.84,5.77-7.12,8.77-.86-.32-1.73-.6-2.57-1-8.68-3.88-8.63-4-1.66-10.26,1.77-1.57,3.09-1.36,4.85-.49C95,820.5,97.16,821.42,99.33,822.4Z"/><path class="cls-14" d="M99.13,843.18c-3.62,3.56-10.16,3.38-13-.11-.28-.36-.58-1.18-.41-1.35,2.24-2.41,4.2-5.91,7-6.8,3.18-1,7,1.59,9.26,3.83C103.77,840.49,99.68,841.61,99.13,843.18Z"/><path class="cls-15" d="M108.8,871.53c-1.19,1.18-2.35,2.33-3.5,3.5a8.86,8.86,0,0,1-13.13.05,2.22,2.22,0,0,1-.75-1.31c.07-2.83,7.83-7.56,10.43-6.29C104.12,868.59,106.78,869.07,108.8,871.53Z"/><path class="cls-16" d="M121.31,934.64a62.39,62.39,0,0,0-5.44,5.47c-2.15,2.73-4.4,2.94-7,1-1.8-1.33-6-1.37-5.28-3.56,1-2.82,4-5.21,6.7-7,1.66-1.13,3.73.91,5.57,1.61s3.67,1.71,5.49,2.58Z"/><path class="cls-17" d="M117.64,919c-9.34,9.54-5.14,9.68-17.34,3C108.72,911.68,106.15,913,117.64,919Z"/><path class="cls-18" d="M109.51,949.67c3.34-3.38,10.9-2.94,13.14.51.25.38.4,1.19.19,1.44-2.18,2.5-4,6.11-7.18,6.64s-6.79-1.63-8.86-3.94C105,952.32,108.94,951.22,109.51,949.67Z"/><path class="cls-19" d="M106.37,855.05c-1.6,1.6-2.77,2.75-3.91,3.91-4,4.06-9,4.16-13.15.22-.36-.35-.84-.82-.85-1.25-.09-2.4,7.64-7.61,9.89-6.65C100.87,852.36,103.32,853.6,106.37,855.05Z"/><path class="cls-20" d="M80.19,711.85a19,19,0,0,0-1.72,1.36c-7.18,7-7.17,7-16.23,1.88,5.72-9.16,7.36-9.45,17.95-3.16Z"/><path class="cls-21" d="M89,815.3a12.61,12.61,0,0,1-3-1.39c-1.91-1.61-6.88-.89-5.56-4.73,1.87-5.46,6.61-7,11.17-4.8,1.79.87,3.88,1.29,5.17,3A20.62,20.62,0,0,1,89,815.3Z"/><path class="cls-19" d="M112.21,887c-1.61,1.61-2.77,2.74-3.91,3.91-3.84,4-9.37,4-13.08.11a2.33,2.33,0,0,1-.78-1.31c0-2.54,7.57-7.59,9.91-6.56S109.23,885.51,112.21,887Z"/><path class="cls-22" d="M64.25,730.81c1.69-1.69,3-3,4.25-4.26a8.76,8.76,0,0,1,12.68.14,2.29,2.29,0,0,1,.73,1.31c0,2.56-7.46,7.63-9.8,6.61S67.23,732.26,64.25,730.81Z"/><path class="cls-23" d="M56,692.16c-3.9-6.76-3.05-9.82,2.65-14,3.18-2.35,3.82-1.65,4.26,1.72.5,3.78,1.75,7.51,0,11.27C60.63,691.81,58.37,692.51,56,692.16Z"/><path class="cls-24" d="M70.8,689.61c-.43-6.52-3-12.78-2.27-19.43,3.86,3,8.44,4.8,8.74,11.23C77.6,688.68,78.34,688.64,70.8,689.61Z"/><path class="cls-25" d="M90.57,795.29c-3.63,3.73-10.52,3.51-13.21,0-.28-.36-.52-1.17-.33-1.38,2.2-2.48,3.94-6.14,7.08-6.78s6.75,1.56,8.9,3.74S90.58,793.65,90.57,795.29Z"/><path class="cls-6" d="M81.51,747.74c-3.2,3.37-10.71,3-13-.42-.25-.37-.42-1.18-.21-1.41,2.2-2.45,4-6.06,7.1-6.65s6.73,1.54,8.77,3.85C86,745.06,82.08,746.19,81.51,747.74Z"/><path class="cls-26" d="M84.58,763.53c-3.49,3.62-10,3.45-12.85-.16-.29-.36-.62-1.14-.45-1.34,2.2-2.66,4.14-6.64,7.44-6.84,2.87-.18,6.49,1.9,8.69,4.09C88.8,760.66,85.25,762,84.58,763.53Z"/><path class="cls-25" d="M91.68,775.32C90,777,89,778,88,779.06c-4.06,4.21-9,4.37-13.17.47-.6-.55-.92-.93-.66-1.79,1.25-4.16,7.78-7,11.83-5.14C87.61,773.37,89.27,774.17,91.68,775.32Z"/><path class="cls-27" d="M69.28,697.88l-.78-4.23A104.3,104.3,0,0,1,84.87,691c2.3.89,1.63,2.47.95,4.06Z"/><path class="cls-28" d="M126,969.37c1,2.13.36,3.61-1.53,4.08-3.42.84-6.91,1.41-10.39,2-1.53.24-3.15,0-3.37-2s1.65-1.67,2.74-1.91c3.26-.74,6.56-1.31,9.85-1.91C124.21,969.46,125.11,969.45,126,969.37Z"/><path class="cls-29" d="M21.35,25.61c-2.45-.25-1.12-1.77-.82-2.74,1.12-3.64,2.36-7.25,3.83-11.67C18.8,13.74,16.85,18.5,14,22.32c-.86,1.14-1,2.89-3,2.6A39.14,39.14,0,0,1,25.85,7.5c1,2.82,0,5.38-.72,8A21,21,0,0,1,21.35,25.61Z"/><path class="cls-30" d="M100.23,688.83c2.79-1.73,6.07-1.47,9.1-2.26,1.63-.43,2.84-.16,3.32,1.84.54,2.25-.76,2.46-2.38,2.71-3.66.57-7.31,1.23-11,1.85C98.52,691.35,98.14,689.81,100.23,688.83Z"/><path class="cls-31" d="M21.35,25.61c1.09-3.45,1.73-7.07,3.78-10.16,1.54,1.64,1.4,3.52.78,5.46-2.53-.49-1.88,1.73-2.06,2.76C22.78,29.57,21.92,35.5,21,41.43l-1.49,0a3.54,3.54,0,0,1-.42-1Q20.22,33,21.35,25.61Z"/><path class="cls-32" d="M85.82,695.1c-.32-1.36-.64-2.71-.95-4.06a40.88,40.88,0,0,1,10.52-1.83c1.76,1,1.6,2.42.94,4A41.71,41.71,0,0,1,85.82,695.1Z"/><path class="cls-1" d="M98.39,954.28a6.33,6.33,0,0,0,.51-1c.73-2.39,2.28-2.58,4.24-1.57a2,2,0,0,1,.7,3.2c-2.07,2.55-3.79.75-5.46-.73Z"/><path class="cls-33" d="M96.33,693.18c-.31-1.32-.63-2.64-.94-4a6.1,6.1,0,0,1,4.84-.38c-.31,1.38-.62,2.76-.92,4.14Z"/><path class="cls-5" d="M89,815.3q3.9-3.93,7.79-7.88A11.74,11.74,0,0,1,89,815.3Z"/></g></g></svg>